<svg width="1307" height="207" viewBox="0 0 1307 207" fill="none" xmlns="http://www.w3.org/2000/svg">
    <path d="M712 169.167V206H697.025V171.075C697.025 159.642 691.395 154.104 681.814 154.104C671.158 154.104 663.968 160.604 663.968 173.478V205.978H649V141.725H663.247V150.029C668.163 144.113 675.948 141 685.324 141C700.594 141 712 149.792 712 169.167Z" fill="white"/>
    <path d="M791.776 178.194H741.128C742.94 187.465 750.782 193.407 762.041 193.407C769.289 193.407 774.97 191.144 779.567 186.516L787.639 195.663C781.839 202.438 772.787 206 761.647 206C740.006 206 726 192.334 726 173.442C726 154.549 740.11 141 759.367 141C778.223 141 791.999 153.958 791.999 173.799C792.014 174.989 791.895 176.77 791.776 178.194ZM741.001 168.332H777.629C776.418 159.185 769.289 152.885 759.382 152.885C749.475 152.885 742.457 159.068 741.001 168.332Z" fill="white"/>
    <path d="M845 201.684C841.405 204.564 836.013 206 830.613 206C816.616 206 808.512 198.569 808.512 184.422V153.616H798V141.656H808.549V127H823.541V141.656H840.69V153.645H823.541V184.09C823.541 190.328 826.657 193.664 832.381 193.664C835.418 193.756 838.396 192.816 840.83 190.998L845 201.684Z" fill="white"/>
    <path d="M853 196.5C853 193.98 854.054 191.564 855.929 189.782C857.804 188.001 860.348 187 863 187C865.652 187 868.196 188.001 870.071 189.782C871.946 191.564 873 193.98 873 196.5C873 199.02 871.946 201.436 870.071 203.218C868.196 204.999 865.652 206 863 206C860.348 206 857.804 204.999 855.929 203.218C854.054 201.436 853 199.02 853 196.5Z" fill="white"/>
    <path d="M881 173.412C881 154.449 895.396 141 915.645 141C928.125 141 938.083 146.105 943 155.726L931.486 162.37C929.845 159.646 927.504 157.401 924.7 155.863C921.897 154.326 918.732 153.551 915.527 153.618C904.47 153.618 896.089 161.218 896.089 173.442C896.089 185.79 904.485 193.265 915.527 193.265C918.732 193.332 921.897 192.558 924.7 191.02C927.504 189.483 929.845 187.237 931.486 184.513L943 191.158C938.083 200.639 928.125 206 915.645 206C895.374 205.942 881 192.405 881 173.412Z" fill="white"/>
    <path d="M950 173.442C950 154.461 964.339 141 983.941 141C1003.76 141 1018 154.432 1018 173.442C1018 192.451 1003.78 206 983.941 206C964.339 206 950 192.451 950 173.442ZM1002.94 173.442C1002.94 161.323 994.814 153.6 983.941 153.6C973.185 153.6 965.058 161.323 965.058 173.442C965.058 185.56 973.185 193.32 983.941 193.32C994.814 193.32 1002.94 185.56 1002.94 173.442Z" fill="white"/>
    <path d="M1139 169.146V206H1124.02V171.055C1124.02 159.616 1118.75 154.074 1109.64 154.074C1099.81 154.074 1092.98 160.578 1092.98 173.311V205.948H1078.01V171.055C1078.01 159.616 1072.74 154.074 1063.63 154.074C1053.69 154.074 1046.97 160.578 1046.97 173.311V205.948H1032V141.688H1046.25V149.879C1051.05 144.1 1058.48 141 1067.22 141C1076.57 141 1084.36 144.492 1088.79 151.721C1093.95 145.099 1102.58 141 1112.76 141C1128.22 140.963 1139 149.76 1139 169.146Z" fill="white"/>
    <path d="M1153 196.5C1153 193.98 1154.05 191.564 1155.93 189.782C1157.8 188.001 1160.35 187 1163 187C1165.65 187 1168.2 188.001 1170.07 189.782C1171.95 191.564 1173 193.98 1173 196.5C1173 199.02 1171.95 201.436 1170.07 203.218C1168.2 204.999 1165.65 206 1163 206C1160.35 206 1157.8 204.999 1155.93 203.218C1154.05 201.436 1153 199.02 1153 196.5V196.5Z" fill="white"/>
    <path d="M1256 173.44C1256 193.151 1242.21 206 1223.5 206C1214.74 206 1207.29 203.029 1202.27 196.969V205.168H1188V117H1202.99V149.436C1208.14 143.734 1215.34 140.997 1223.5 140.997C1242.18 140.997 1256 153.714 1256 173.44ZM1240.77 173.44C1240.77 161.321 1232.61 153.597 1221.82 153.597C1211.03 153.597 1202.75 161.321 1202.75 173.44C1202.75 185.559 1211.03 193.319 1221.82 193.319C1232.61 193.319 1240.77 185.559 1240.77 173.44Z" fill="white"/>
    <path d="M1307 141V155.324C1305.86 155.1 1304.69 154.981 1303.53 154.969C1292.15 154.969 1284.96 161.705 1284.96 174.824V206H1270V141.725H1284.24V151.109C1288.56 144.372 1296.34 141 1307 141Z" fill="white"/>
    <path d="M99.03 34.52L0 206.09H51.88L150.96 34.52H99.03Z" fill="white"/>
    <path d="M229.28 2.72921e-08H119L108.56 18H221.77C223.127 18.0003 224.461 18.3579 225.636 19.0369C226.811 19.7159 227.787 20.6924 228.465 21.8681C229.143 23.0439 229.499 24.3774 229.499 25.7347C229.498 27.092 229.14 28.4251 228.46 29.6L148.87 167.45C146.609 171.366 143.357 174.618 139.441 176.879C135.524 179.14 131.082 180.33 126.56 180.33H92.56L77.65 206.09H140.06C144.582 206.09 149.024 204.9 152.941 202.639C156.857 200.378 160.109 197.126 162.37 193.21L251.59 38.64C253.851 34.7239 255.041 30.2816 255.041 25.7597C255.041 21.2378 253.851 16.7955 251.59 12.8795C249.329 8.96344 246.077 5.71157 242.16 3.45074C238.244 1.18991 233.802 -0.000208096 229.28 2.72921e-08V2.72921e-08Z" fill="white"/>
    <path d="M686.29 5.03244e-08H540.55C537.836 -0.000218901 535.17 0.714026 532.819 2.07094C530.469 3.42784 528.517 5.3796 527.16 7.73L521.21 18H675.89L686.29 5.03244e-08Z" fill="white"/>
    <path d="M486.17 168.74L563.67 34.52H511.73L426 182.91C424.642 185.26 423.927 187.925 423.927 190.639C423.927 193.352 424.642 196.018 425.999 198.368C427.356 200.718 429.308 202.669 431.659 204.024C434.01 205.38 436.676 206.092 439.39 206.09H567.29L582.12 180.33H492.82C491.468 180.322 490.141 179.959 488.973 179.277C487.805 178.596 486.836 177.62 486.162 176.447C485.489 175.274 485.136 173.945 485.137 172.593C485.139 171.24 485.495 169.912 486.17 168.74V168.74Z" fill="white"/>
    <path d="M431.17 95.32L463.9 38.65C466.163 34.7344 467.355 30.292 467.357 25.7694C467.359 21.2469 466.17 16.8036 463.909 12.8863C461.649 8.96904 458.398 5.71583 454.481 3.45377C450.565 1.19171 446.123 0.000533331 441.6 0L325.42 0L315 18H434C435.357 18.0015 436.69 18.3598 437.864 19.0388C439.039 19.7178 440.015 20.6938 440.694 21.8688C441.372 23.0438 441.73 24.3766 441.731 25.7335C441.732 27.0905 441.377 28.4239 440.7 29.6L411 81.15C409.645 83.4996 407.695 85.451 405.346 86.8079C402.997 88.1648 400.333 88.8795 397.62 88.88H351.85L340.67 108.2H408.86C413.382 108.198 417.823 107.007 421.739 104.746C425.655 102.486 428.907 99.2348 431.17 95.32V95.32Z" fill="white"/>
    <path d="M305.54 34.52L206.46 206.09H258.39L357.47 34.52H305.54Z" fill="white"/>
    </svg>
    